<svg fill="none" height="16" viewBox="0 0 16 16" width="16" xmlns="http://www.w3.org/2000/svg">
  <path clip-rule="evenodd"
        d="M9.7 5.4C9.47909 5.23431 9.43431 4.92091 9.6 4.7C9.76569 4.47909 10.0791 4.43431 10.3 4.6L14.2954 7.59651C14.3243 7.61771 14.3508 7.64195 14.3745 7.66875C14.4526 7.75695 14.5 7.87294 14.5 8C14.5 8.12706 14.4526 8.24305 14.3745 8.33125C14.3631 8.3442 14.3509 8.3566 14.3381 8.36838C14.3245 8.38084 14.3102 8.39257 14.2953 8.40349L10.3 11.4C10.0791 11.5657 9.76569 11.5209 9.6 11.3C9.43431 11.0791 9.47909 10.7657 9.7 10.6L12.5 8.5L2 8.5C1.72386 8.5 1.5 8.27614 1.5 8C1.5 7.72386 1.72386 7.5 2 7.5L12.5 7.5L9.7 5.4Z"
        fill="white"
        fill-rule="evenodd"/>
</svg>
