<svg width="12" height="12" viewBox="0 0 12 12" fill="none" xmlns="http://www.w3.org/2000/svg">
  <path
    d="M8.34131 6.5L6.34131 11C5.94348 11 5.56195 10.842 5.28065 10.5607C4.99934 10.2794 4.84131 9.89782 4.84131 9.5V7.5H2.01131C1.86635 7.50164 1.72278 7.47175 1.59052 7.41239C1.45827 7.35303 1.3405 7.26563 1.24538 7.15624C1.15026 7.04685 1.08006 6.91809 1.03964 6.77887C0.999221 6.63966 0.989555 6.49332 1.01131 6.35L1.70131 1.85C1.73747 1.61155 1.85859 1.3942 2.04236 1.238C2.22612 1.0818 2.46014 0.997274 2.70131 1H8.34131M8.34131 6.5V1M8.34131 6.5H9.84131C10.1065 6.5 10.3609 6.39464 10.5484 6.20711C10.736 6.01957 10.8413 5.76522 10.8413 5.5V2C10.8413 1.73478 10.736 1.48043 10.5484 1.29289C10.3609 1.10536 10.1065 1 9.84131 1H8.34131"
    stroke="#C80F2E" stroke-linecap="round" stroke-linejoin="round"/>
</svg>
