<svg fill="none" height="301" viewBox="0 0 825 301" width="825" xmlns="http://www.w3.org/2000/svg">
  <rect fill="#0F0F0F" height="240" rx="24" width="825"/>
  <path clip-rule="evenodd" d="M512.334 20H468C445.909 20 428 37.9086 428 60V104.334L512.334 20ZM428 135.386V160C428 193.137 454.863 220 488 220H512.614L428 135.386ZM513 192.102L440.758 119.86L513 47.6183V192.102Z"
        fill="#171717"
        fill-rule="evenodd"/>
  <path clip-rule="evenodd" d="M211.858 20L32 20C25.3726 20 20 25.3726 20 32L20 72L263.858 72L211.858 20ZM292.142 72H311V20L240.142 20L292.142 72Z"
        fill="white"
        fill-rule="evenodd"/>
  <path clip-rule="evenodd" d="M211.527 220L32 220C25.3726 220 20 214.627 20 208V168L263.527 168L211.527 220ZM291.811 168L239.811 220L306 220V168L291.811 168Z"
        fill="white"
        fill-rule="evenodd"/>
  <rect fill="white" height="200" transform="rotate(-180 585 220)" width="52" x="585" y="220"/>
  <rect fill="white" height="200" transform="rotate(-180 731 220)" width="52" x="731" y="220"/>
  <path d="M605 72L605 20L793 20C799.627 20 805 25.3726 805 32L805 72L605 72Z" fill="white"/>
  <path clip-rule="evenodd" d="M376.168 83.3102L239.479 220H313.002L412.93 120.072L376.168 83.3102ZM427.072 105.93L512.983 20.0187H439.46L390.311 69.168L427.072 105.93ZM512.988 20.0139L512.992 20.01L512.988 20.0061V20.0139Z"
        fill="#C80F2E"
        fill-rule="evenodd"/>
  <path clip-rule="evenodd" d="M427.07 105.929L512.981 20.0187H439.457L390.309 69.1675L427.07 105.929ZM512.986 20.0133L512.99 20.0097L512.986 20.0061V20.0133Z"
        fill="white"
        fill-rule="evenodd"/>
  <path clip-rule="evenodd" d="M426.892 133.92L512.972 220H439.449L390.13 170.681L426.892 133.92ZM412.75 119.777L312.991 20.0187H239.468L375.988 156.539L412.75 119.777ZM239.463 20.0138L239.459 20.0099L239.463 20.0061V20.0138Z"
        fill="#C80F2E"
        fill-rule="evenodd"/>
  <path clip-rule="evenodd" d="M426.893 133.92L390.131 170.682L439.449 220H512.973L426.893 133.92Z" fill="white"
        fill-rule="evenodd"/>
  <rect fill="#C80F2E" height="352" transform="rotate(90 372 94)" width="52" x="372" y="94"/>
  <rect fill="#171717" height="128" width="54" x="605" y="92"/>
  <path d="M751 92H805V208C805 214.627 799.627 220 793 220H751V92Z" fill="#171717"/>
  <path clip-rule="evenodd" d="M341.416 220L376.109 185.307L410.801 220H341.416Z" fill="#171717" fill-rule="evenodd"/>
  <path clip-rule="evenodd" d="M341.416 20.0001L376.109 54.6926L410.801 20.0001H341.416Z" fill="#171717"
        fill-rule="evenodd"/>
  <path
    d="M13.42 300.488C8.82413 300.488 5.43338 299.415 3.24777 297.27C1.08259 295.105 0 291.747 0 287.194V262.246C0 261.518 0.194049 260.961 0.582147 260.577C0.970246 260.193 1.53197 260 2.26731 260C3.00266 260 3.55416 260.193 3.92184 260.577C4.30994 260.961 4.50399 261.518 4.50399 262.246V287.194C4.50399 289.42 4.77974 291.18 5.33125 292.475C5.88276 293.75 6.80194 294.66 8.08879 295.207C9.39607 295.753 11.1732 296.026 13.42 296.026H20.7735C22.9999 296.026 24.7566 295.753 26.0434 295.207C27.3507 294.66 28.2801 293.75 28.8316 292.475C29.3831 291.18 29.6589 289.42 29.6589 287.194V262.246C29.6589 261.518 29.8529 260.961 30.241 260.577C30.6291 260.193 31.1909 260 31.9262 260C32.6616 260 33.2131 260.193 33.5807 260.577C33.9688 260.961 34.1629 261.518 34.1629 262.246V287.194C34.1629 291.747 33.0803 295.105 30.9151 297.27C28.7499 299.415 25.3694 300.488 20.7735 300.488H13.42Z"
    fill="white"/>
  <path
    d="M49.6386 300.488C48.1271 300.488 47.3713 299.739 47.3713 298.242V262.246C47.3713 260.749 48.1271 260 49.6386 260C51.1297 260 51.8753 260.749 51.8753 262.246V277.664L68.3593 260.85C69.401 259.757 70.453 259.737 71.5151 260.789C72.6181 261.821 72.6386 262.873 71.5764 263.946L58.3096 277.482L73.9356 296.694C74.8548 297.867 74.7527 298.909 73.6292 299.82C72.4649 300.771 71.413 300.67 70.4734 299.516L55.1537 280.73L51.8753 284.068V298.242C51.8753 299.739 51.1297 300.488 49.6386 300.488Z"
    fill="white"/>
  <path
    d="M110.562 300.579C109.969 300.963 109.408 301.084 108.876 300.943C108.345 300.801 107.886 300.437 107.498 299.85L97.8157 284.129H88.3481V298.242C88.3481 299.739 87.6025 300.488 86.1114 300.488C84.5999 300.488 83.8441 299.739 83.8441 298.242V262.246C83.8441 260.749 84.5999 260 86.1114 260H100.451C104.107 260 106.895 260.961 108.815 262.884C110.735 264.786 111.695 267.547 111.695 271.169V272.99C111.695 276.147 110.95 278.656 109.459 280.517C107.988 282.379 105.843 283.522 103.024 283.947L111.389 297.544C112.104 298.798 111.828 299.81 110.562 300.579ZM88.3481 279.667H100.451C102.861 279.667 104.587 279.151 105.629 278.119C106.67 277.087 107.191 275.378 107.191 272.99V271.169C107.191 268.782 106.67 267.072 105.629 266.04C104.587 264.988 102.861 264.462 100.451 264.462H88.3481V279.667Z"
    fill="white"/>
  <path
    d="M120.382 300.275C118.952 299.709 118.523 298.727 119.095 297.331L133.894 261.761C134.405 260.587 135.242 260 136.406 260H136.56C137.724 260.061 138.521 260.648 138.949 261.761L153.901 297.331C154.473 298.727 154.065 299.709 152.676 300.275C151.266 300.821 150.286 300.417 149.735 299.061L146.15 290.563H126.755L123.293 299.061C122.721 300.437 121.751 300.842 120.382 300.275ZM128.532 286.102H144.311L136.314 267.072L128.532 286.102Z"
    fill="white"/>
  <path
    d="M165.999 300.488C165.243 300.488 164.671 300.305 164.283 299.941C163.915 299.557 163.731 298.99 163.731 298.242V262.277C163.731 261.508 163.915 260.941 164.283 260.577C164.671 260.213 165.243 260.031 165.999 260.031C166.755 260.031 167.316 260.213 167.684 260.577C168.052 260.941 168.235 261.508 168.235 262.277V298.242C168.235 298.99 168.052 299.557 167.684 299.941C167.316 300.305 166.755 300.488 165.999 300.488Z"
    fill="white"/>
  <path
    d="M184.04 300.488C182.529 300.488 181.773 299.739 181.773 298.242V262.246C181.773 260.749 182.529 260 184.04 260C184.816 260 185.572 260.445 186.307 261.336L211.37 293.295H210.267V262.246C210.267 260.749 211.023 260 212.535 260C214.026 260 214.771 260.749 214.771 262.246V298.242C214.771 299.739 214.026 300.488 212.535 300.488C211.718 300.488 210.962 300.042 210.267 299.152L185.174 267.193H186.277V298.242C186.277 299.739 185.531 300.488 184.04 300.488Z"
    fill="white"/>
  <path
    d="M230.566 300.488C229.811 300.488 229.239 300.305 228.851 299.941C228.483 299.557 228.299 298.99 228.299 298.242V262.277C228.299 261.508 228.483 260.941 228.851 260.577C229.239 260.213 229.811 260.031 230.566 260.031C231.322 260.031 231.884 260.213 232.252 260.577C232.619 260.941 232.803 261.508 232.803 262.277V298.242C232.803 298.99 232.619 299.557 232.252 299.941C231.884 300.305 231.322 300.488 230.566 300.488Z"
    fill="white"/>
  <path
    d="M244.012 300.275C242.582 299.709 242.153 298.727 242.725 297.331L257.524 261.761C258.034 260.587 258.872 260 260.036 260H260.189C261.354 260.061 262.15 260.648 262.579 261.761L277.531 297.331C278.103 298.727 277.695 299.709 276.306 300.275C274.896 300.821 273.916 300.417 273.364 299.061L269.779 290.563H250.385L246.923 299.061C246.351 300.437 245.38 300.842 244.012 300.275ZM252.162 286.102H267.941L259.944 267.072L252.162 286.102Z"
    fill="white"/>
  <path
    d="M289.629 300.488C288.117 300.488 287.361 299.739 287.361 298.242V262.246C287.361 260.749 288.117 260 289.629 260C290.405 260 291.161 260.445 291.896 261.336L316.959 293.295H315.856V262.246C315.856 260.749 316.612 260 318.123 260C319.614 260 320.36 260.749 320.36 262.246V298.242C320.36 299.739 319.614 300.488 318.123 300.488C317.306 300.488 316.55 300.042 315.856 299.152L290.762 267.193H291.865V298.242C291.865 299.739 291.12 300.488 289.629 300.488Z"
    fill="white"/>
  <path
    d="M355.333 300.488C353.822 300.488 353.066 299.739 353.066 298.242V262.246C353.066 260.749 353.822 260 355.333 260H371.327C374.493 260 376.914 260.82 378.588 262.459C380.263 264.098 381.101 266.455 381.101 269.53V271.169C381.101 274.042 380.182 276.197 378.343 277.634C381.693 279.333 383.368 282.581 383.368 287.376V289.379C383.368 293.021 382.408 295.783 380.488 297.665C378.568 299.547 375.78 300.488 372.124 300.488H355.333ZM357.57 296.026H372.124C374.513 296.026 376.229 295.51 377.271 294.478C378.333 293.426 378.864 291.726 378.864 289.379V287.376C378.864 285.029 378.354 283.35 377.332 282.338C376.311 281.306 374.575 280.79 372.124 280.79H357.57V296.026ZM357.57 276.329H372.215C373.829 276.329 374.963 275.873 375.616 274.963C376.27 274.032 376.597 272.768 376.597 271.169V269.53C376.597 267.689 376.199 266.384 375.402 265.615C374.605 264.846 373.247 264.462 371.327 264.462H357.57V276.329Z"
    fill="white"/>
  <path
    d="M392.117 300.275C390.687 299.709 390.258 298.727 390.83 297.331L405.629 261.761C406.14 260.587 406.977 260 408.142 260H408.295C409.459 260.061 410.256 260.648 410.685 261.761L425.637 297.331C426.209 298.727 425.8 299.709 424.411 300.275C423.002 300.821 422.021 300.417 421.47 299.061L417.885 290.563H398.49L395.028 299.061C394.456 300.437 393.486 300.842 392.117 300.275ZM400.267 286.102H416.047L408.05 267.072L400.267 286.102Z"
    fill="white"/>
  <path
    d="M442.754 300.488C442.019 300.488 441.457 300.305 441.069 299.941C440.681 299.557 440.487 299 440.487 298.272V264.492H428.231C427.496 264.492 426.934 264.31 426.546 263.946C426.158 263.561 425.964 263.005 425.964 262.277C425.964 261.548 426.158 260.992 426.546 260.607C426.934 260.223 427.496 260.031 428.231 260.031H457.277C458.012 260.031 458.564 260.223 458.932 260.607C459.32 260.992 459.514 261.548 459.514 262.277C459.514 263.005 459.32 263.561 458.932 263.946C458.564 264.31 458.012 264.492 457.277 264.492H444.991V298.272C444.991 298.96 444.797 299.506 444.409 299.911C444.02 300.295 443.469 300.488 442.754 300.488Z"
    fill="white"/>
  <path
    d="M480.663 300.488C479.928 300.488 479.366 300.305 478.978 299.941C478.59 299.557 478.396 299 478.396 298.272V264.492H466.14C465.405 264.492 464.843 264.31 464.455 263.946C464.067 263.561 463.873 263.005 463.873 262.277C463.873 261.548 464.067 260.992 464.455 260.607C464.843 260.223 465.405 260.031 466.14 260.031H495.186C495.921 260.031 496.473 260.223 496.841 260.607C497.229 260.992 497.423 261.548 497.423 262.277C497.423 263.005 497.229 263.561 496.841 263.946C496.473 264.31 495.921 264.492 495.186 264.492H482.9V298.272C482.9 298.96 482.706 299.506 482.318 299.911C481.929 300.295 481.378 300.488 480.663 300.488Z"
    fill="white"/>
  <path
    d="M508.645 300.488C507.133 300.488 506.378 299.739 506.378 298.242V262.246C506.378 260.749 507.133 260 508.645 260C510.136 260 510.882 260.749 510.882 262.246V296.026H528.407C529.919 296.026 530.674 296.765 530.674 298.242C530.674 299.739 529.919 300.488 528.407 300.488H508.645Z"
    fill="white"/>
  <path
    d="M542.185 300.488C540.674 300.488 539.918 299.739 539.918 298.242V262.246C539.918 260.749 540.674 260 542.185 260H564.491C566.002 260 566.758 260.749 566.758 262.246C566.758 263.723 566.002 264.462 564.491 264.462H544.422V277.816H557.26C558.771 277.816 559.527 278.554 559.527 280.031C559.527 281.529 558.771 282.277 557.26 282.277H544.422V296.026H564.491C566.002 296.026 566.758 296.765 566.758 298.242C566.758 299.739 566.002 300.488 564.491 300.488H542.185Z"
    fill="white"/>
  <path
    d="M598.674 300.488C597.163 300.488 596.407 299.739 596.407 298.242V262.246C596.407 260.749 597.163 260 598.674 260C600.165 260 600.911 260.749 600.911 262.246V296.026H618.437C619.948 296.026 620.704 296.765 620.704 298.242C620.704 299.739 619.948 300.488 618.437 300.488H598.674Z"
    fill="white"/>
  <path
    d="M632.215 300.488C630.703 300.488 629.948 299.739 629.948 298.242V262.246C629.948 260.749 630.703 260 632.215 260H654.52C656.032 260 656.788 260.749 656.788 262.246C656.788 263.723 656.032 264.462 654.52 264.462H634.451V277.816H647.289C648.801 277.816 649.557 278.554 649.557 280.031C649.557 281.529 648.801 282.277 647.289 282.277H634.451V296.026H654.52C656.032 296.026 656.788 296.765 656.788 298.242C656.788 299.739 656.032 300.488 654.52 300.488H632.215Z"
    fill="white"/>
  <path
    d="M664.93 300.275C663.5 299.709 663.071 298.727 663.643 297.331L678.441 261.761C678.952 260.587 679.79 260 680.954 260H681.107C682.271 260.061 683.068 260.648 683.497 261.761L698.449 297.331C699.021 298.727 698.612 299.709 697.223 300.275C695.814 300.821 694.833 300.417 694.282 299.061L690.697 290.563H671.302L667.84 299.061C667.268 300.437 666.298 300.842 664.93 300.275ZM673.08 286.102H688.859L680.862 267.072L673.08 286.102Z"
    fill="white"/>
  <path
    d="M719.844 300.488C715.248 300.488 711.858 299.415 709.672 297.27C707.507 295.105 706.424 291.747 706.424 287.194V273.294C706.424 268.701 707.507 265.332 709.672 263.187C711.837 261.042 715.208 259.98 719.783 260H727.198C730.997 260 733.877 260.789 735.838 262.368C737.799 263.926 738.922 266.394 739.208 269.773C739.311 270.522 739.168 271.098 738.779 271.503C738.391 271.887 737.819 272.08 737.064 272.08C735.695 272.08 734.909 271.331 734.704 269.834C734.521 267.77 733.857 266.364 732.713 265.615C731.569 264.846 729.731 264.462 727.198 264.462H719.783C717.557 264.462 715.8 264.735 714.513 265.281C713.226 265.807 712.307 266.718 711.756 268.013C711.204 269.287 710.928 271.048 710.928 273.294V287.194C710.928 289.42 711.204 291.18 711.756 292.475C712.307 293.75 713.226 294.66 714.513 295.207C715.82 295.753 717.597 296.026 719.844 296.026H727.198C729.159 296.026 730.691 295.803 731.794 295.358C732.917 294.913 733.703 294.144 734.153 293.052C734.623 291.939 734.858 290.391 734.858 288.408V285.252L729.434 285.191C727.943 285.191 727.198 284.442 727.198 282.945C727.198 281.468 727.943 280.73 729.434 280.73L737.125 280.79C738.616 280.79 739.362 281.529 739.362 283.006V288.408C739.362 292.617 738.381 295.682 736.42 297.604C734.48 299.526 731.406 300.488 727.198 300.488H719.844Z"
    fill="white"/>
  <path
    d="M764.209 300.488C759.613 300.488 756.222 299.415 754.036 297.27C751.871 295.105 750.789 291.747 750.789 287.194V262.246C750.789 261.518 750.983 260.961 751.371 260.577C751.759 260.193 752.321 260 753.056 260C753.791 260 754.343 260.193 754.71 260.577C755.099 260.961 755.293 261.518 755.293 262.246V287.194C755.293 289.42 755.568 291.18 756.12 292.475C756.671 293.75 757.591 294.66 758.877 295.207C760.185 295.753 761.962 296.026 764.209 296.026H771.562C773.789 296.026 775.545 295.753 776.832 295.207C778.139 294.66 779.069 293.75 779.62 292.475C780.172 291.18 780.448 289.42 780.448 287.194V262.246C780.448 261.518 780.642 260.961 781.03 260.577C781.418 260.193 781.979 260 782.715 260C783.45 260 784.002 260.193 784.369 260.577C784.757 260.961 784.951 261.518 784.951 262.246V287.194C784.951 291.747 783.869 295.105 781.704 297.27C779.539 299.415 776.158 300.488 771.562 300.488H764.209Z"
    fill="white"/>
  <path
    d="M800.427 300.488C798.916 300.488 798.16 299.739 798.16 298.242V262.246C798.16 260.749 798.916 260 800.427 260H822.733C824.244 260 825 260.749 825 262.246C825 263.723 824.244 264.462 822.733 264.462H802.664V277.816H815.502C817.013 277.816 817.769 278.554 817.769 280.031C817.769 281.529 817.013 282.277 815.502 282.277H802.664V296.026H822.733C824.244 296.026 825 296.765 825 298.242C825 299.739 824.244 300.488 822.733 300.488H800.427Z"
    fill="white"/>
</svg>
