<svg fill="none" height="240" viewBox="0 0 825 240" width="825" xmlns="http://www.w3.org/2000/svg">
  <rect fill="#0F0F0F" height="240" rx="24" width="825"/>
  <path clip-rule="evenodd"
        d="M512.334 20H468C445.909 20 428 37.9086 428 60V104.334L512.334 20ZM428 135.386V160C428 193.137 454.863 220 488 220H512.614L428 135.386ZM513 192.102L440.758 119.86L513 47.6183V192.102Z"
        fill="#171717"
        fill-rule="evenodd"/>
  <path clip-rule="evenodd"
        d="M211.858 20L32 20C25.3726 20 20 25.3726 20 32L20 72L263.858 72L211.858 20ZM292.142 72H311V20L240.142 20L292.142 72Z"
        fill="white"
        fill-rule="evenodd"/>
  <path clip-rule="evenodd"
        d="M211.527 220L32 220C25.3726 220 20 214.627 20 208V168L263.527 168L211.527 220ZM291.811 168L239.811 220L306 220V168L291.811 168Z"
        fill="white"
        fill-rule="evenodd"/>
  <rect fill="white" height="200" transform="rotate(-180 585 220)" width="52" x="585" y="220"/>
  <rect fill="white" height="200" transform="rotate(-180 731 220)" width="52" x="731" y="220"/>
  <path d="M605 72L605 20L793 20C799.627 20 805 25.3726 805 32L805 72L605 72Z" fill="white"/>
  <path clip-rule="evenodd"
        d="M376.168 83.3102L239.479 220H313.002L412.93 120.072L376.168 83.3102ZM427.072 105.93L512.983 20.0187H439.46L390.311 69.168L427.072 105.93ZM512.988 20.0139L512.992 20.01L512.988 20.0061V20.0139Z"
        fill="#C80F2E"
        fill-rule="evenodd"/>
  <path clip-rule="evenodd"
        d="M427.07 105.929L512.981 20.0187H439.457L390.309 69.1675L427.07 105.929ZM512.986 20.0133L512.99 20.0097L512.986 20.0061V20.0133Z"
        fill="white"
        fill-rule="evenodd"/>
  <path clip-rule="evenodd"
        d="M426.892 133.92L512.972 220H439.449L390.13 170.681L426.892 133.92ZM412.75 119.777L312.991 20.0187H239.468L375.988 156.539L412.75 119.777ZM239.463 20.0138L239.459 20.0099L239.463 20.0061V20.0138Z"
        fill="#C80F2E"
        fill-rule="evenodd"/>
  <path clip-rule="evenodd" d="M426.893 133.92L390.131 170.682L439.449 220H512.973L426.893 133.92Z" fill="white"
        fill-rule="evenodd"/>
  <rect fill="#C80F2E" height="352" transform="rotate(90 372 94)" width="52" x="372" y="94"/>
  <rect fill="#171717" height="128" width="54" x="605" y="92"/>
  <path d="M751 92H805V208C805 214.627 799.627 220 793 220H751V92Z" fill="#171717"/>
  <path clip-rule="evenodd" d="M341.416 220L376.109 185.307L410.801 220H341.416Z" fill="#171717" fill-rule="evenodd"/>
  <path clip-rule="evenodd" d="M341.416 20.0001L376.109 54.6926L410.801 20.0001H341.416Z" fill="#171717"
        fill-rule="evenodd"/>
</svg>
