<svg fill="none" height="16" viewBox="0 0 18 16" width="18" xmlns="http://www.w3.org/2000/svg">
  <path d="M11.283 4.00195V12H9.97099V5.33795H9.90599L8.07199 6.65595V5.38495L9.97099 4.00195H11.283Z" fill="#C71231"/>
  <path
    d="M2 2C2 1.46957 2.21071 0.960859 2.58579 0.585786C2.96086 0.210714 3.46957 0 4 0L16 0C16.5304 0 17.0391 0.210714 17.4142 0.585786C17.7893 0.960859 18 1.46957 18 2V14C18 14.5304 17.7893 15.0391 17.4142 15.4142C17.0391 15.7893 16.5304 16 16 16H4C3.46957 16 2.96086 15.7893 2.58579 15.4142C2.21071 15.0391 2 14.5304 2 14V2ZM17 2C17 1.73478 16.8946 1.48043 16.7071 1.29289C16.5196 1.10536 16.2652 1 16 1H4C3.73478 1 3.48043 1.10536 3.29289 1.29289C3.10536 1.48043 3 1.73478 3 2V14C3 14.2652 3.10536 14.5196 3.29289 14.7071C3.48043 14.8946 3.73478 15 4 15H16C16.2652 15 16.5196 14.8946 16.7071 14.7071C16.8946 14.5196 17 14.2652 17 14V2Z"
    fill="#C71231"/>
  <rect fill="#FDFBFB" height="8" width="1" x="2" y="4"/>
  <rect fill="#C71231" height="4" width="1" x="2" y="6"/>
  <rect fill="#C71231" height="4" transform="rotate(-90 0.5 8.5)" width="1" x="0.5" y="8.5"/>
</svg>
