<?xml version="1.0" standalone="no"?>
<!DOCTYPE svg PUBLIC "-//W3C//DTD SVG 20010904//EN"
  "http://www.w3.org/TR/2001/REC-SVG-20010904/DTD/svg10.dtd">
<svg height="3300.000000pt" preserveAspectRatio="xMidYMid meet"
     version="1.0" viewBox="0 0 3300.000000 3300.000000" width="3300.000000pt"
     xmlns="http://www.w3.org/2000/svg">
  <metadata>
    Created by potrace 1.14, written by Peter Selinger 2001-2017
  </metadata>
  <g fill="#000000"
     stroke="none" transform="translate(0.000000,3300.000000) scale(0.100000,-0.100000)">
    <path d="M760 21285 c-346 -71 -636 -345 -736 -695 -18 -63 -19 -198 -22
-4045 -2 -2935 0 -3999 8 -4053 60 -388 394 -722 782 -782 54 -8 4107 -10
15753 -8 15264 3 15682 3 15745 22 359 102 636 405 699 760 15 84 15 7948 0
8032 -63 355 -340 658 -699 760 -63 19 -479 19 -15765 21 -13057 1 -15711 -1
-15765 -12z m31090 -812 c152 -41 279 -168 324 -322 14 -48 16 -155 16 -888
l0 -833 -1475 0 -1475 0 0 -2960 0 -2960 -1040 0 -1040 0 0 2960 0 2960 -1475
0 -1475 0 0 1030 0 1030 1478 3 c812 2 2519 1 3792 -1 2025 -3 2322 -5 2370
-19z m-22345 -1013 l1030 -1030 -4863 0 -4862 0 0 833 c0 733 2 840 16 888 44
151 163 272 314 320 52 17 246 18 3695 18 l3640 1 1030 -1030z m9290 -680
l-1710 -1710 -732 732 -733 733 977 977 978 978 1465 0 1465 0 -1710 -1710z
m4605 -2280 l0 -3990 -1035 0 -1035 0 0 3990 0 3990 1035 0 1035 0 0 -3990z
m-4605 -2280 l1710 -1710 -1465 0 -1465 0 -980 980 -980 980 730 730 c401 401
732 730 735 730 3 0 775 -769 1715 -1710z m-9300 -680 l-1030 -1030 -3631 0
c-3292 0 -3635 1 -3685 16 -154 45 -278 169 -323 323 -14 48 -16 155 -16 888
l0 833 4857 0 4858 0 -1030 -1030z"/>
  </g>
</svg>
